<?xml version="1.0" encoding="utf-8"?>
<!-- Generator: Adobe Illustrator 21.1.0, SVG Export Plug-In . SVG Version: 6.00 Build 0)  -->
<svg version="1.1" id="Layer_1" xmlns="http://www.w3.org/2000/svg" xmlns:xlink="http://www.w3.org/1999/xlink" x="0px" y="0px"
	 viewBox="0 0 510 111.5" style="enable-background:new 0 0 510 111.5;" xml:space="preserve">
<style type="text/css">
	.st0{fill:#7D4199;}
	.st1{fill:#6BC7B8;}
</style>
<g>
	<g>
		<path class="st0" d="M63.4,60.4c4.6,0,8.4-3.8,8.4-8.5c0-4.6-3.8-8.4-8.5-8.4c-4.6,0-8.4,3.9-8.4,8.5C55,56.6,58.8,60.4,63.4,60.4
			z"/>
	</g>
	<path class="st0" d="M202.2,99.7c-1.6,0-3.2-0.2-4.6-0.9c-1.3-0.6-2.3-1.5-3.1-2.8c-0.8-1.4-1.1-3-1.2-4.6c0-0.1,0-0.3,0-0.4
		l30.8-0.3l0.3,0l0-1.8c-0.1-7.1-2.2-12.9-6.2-17c-4-4.1-9.9-6.4-17-6.4c-6.8,0.1-12.6,2.4-16.7,6.4c-4.2,4-6.4,9.8-6.3,16.5
		c0.1,13.5,9.6,22.1,24.2,22.1c0.1,0,0.2,0,0.3,0c13.2-0.1,19.6-7.7,21.2-14.7l0.1-0.3l-14.6,0c-0.1,0-0.4,0.6-0.4,0.6
		c-0.1,0.2-0.3,0.4-0.5,0.6c-0.3,0.3-0.6,0.7-1,1c-0.6,0.5-1.3,0.9-2,1.2c-0.9,0.4-1.9,0.6-2.9,0.6
		C202.4,99.7,202.3,99.7,202.2,99.7z M202,75.9c3.9,0,7.2,2.5,8,6L193.5,82C194.4,78.3,197.6,76,202,75.9
		C201.9,75.9,202,75.9,202,75.9z"/>
	<path class="st0" d="M281.5,109.7l0-20.2c0-4.7,0-11.9,6.7-11.9c6.7,0,6.7,7.2,6.7,11.9l0,20.3H310l0-20.3c0-5.1,0.2-11.6,7.2-11.6
		c6.4,0,6.2,7.2,6.2,11.6l0,20.3h15l0-27.1c0-9.8-3.7-17-14.5-17c-5.8,0-11.5,3-14.4,8.3c-3.1-5.6-8.4-8.3-14.5-8.3
		c-5.5,0-10,2.2-13.6,6.9l0,0l0-4.7l-15,0l0,41.8H281.5z"/>
	<path class="st0" d="M358.5,67.8l0,21.5c0,5.4,1.4,9.2,7.6,9.1c6.2,0,7.5-3.9,7.5-9.2l0-21.3l15.1,0l0,24.2
		c0.1,14-9.7,18.5-22.5,18.6c-12.8,0.1-22.6-4.3-22.7-18.3l0-24.4L358.5,67.8z"/>
	<path class="st0" d="M421.6,78.5c-2.2-1.4-5.4-2.4-8-2.5c-1.7-0.1-4.8,0.5-4.9,2.6c-0.2,2.9,4.5,3.6,6.6,4.1
		c7,1.8,12.1,5.4,11.6,13.2c-0.6,11.2-11,15.2-20.9,14.7c-6-0.3-11.9-2.4-16.8-5.8l6-10.2c2.9,2.3,7.9,4.7,11.7,5
		c1.9,0.1,4.8-0.6,4.9-3c0.2-3.3-4.5-3.7-9.2-5.2c-4.6-1.5-9.2-4.1-8.8-11.7c0.6-10.4,10.2-14.5,19.5-14c4.8,0.3,9.5,1.3,13.8,3.5
		L421.6,78.5z"/>
	<g>
		<path class="st0" d="M506.1,104c0,0.6-0.4,0.8-1.1,0.8h-1.2v-1.6h1.2C505.6,103.2,506.1,103.4,506.1,104 M502.9,107
			c0,0.2,0.2,0.4,0.4,0.4c0.3,0,0.5-0.2,0.5-0.4v-1.5h1.2l1.2,1.7c0.1,0.2,0.2,0.2,0.4,0.2c0.2,0,0.4-0.2,0.4-0.4
			c0-0.1,0-0.2-0.1-0.4l-0.9-1.3c0.6-0.2,1-0.7,1-1.4c0-1.1-0.9-1.6-1.9-1.6h-1.8c-0.2,0-0.4,0.2-0.4,0.5V107z M500.7,105
			c0-2.3,1.9-4.3,4.2-4.3c2.4,0,4.2,1.9,4.2,4.3c0,2.3-1.9,4.2-4.2,4.2C502.5,109.2,500.7,107.3,500.7,105 M510,105
			c0-2.8-2.3-5.1-5.1-5.1c-2.8,0-5,2.3-5,5.1c0,2.8,2.3,5,5.1,5C507.7,110,510,107.8,510,105"/>
	</g>
	<g>
		<path class="st0" d="M506.1,104c0,0.6-0.4,0.8-1.1,0.8h-1.2v-1.6h1.2C505.6,103.2,506.1,103.4,506.1,104 M502.9,107
			c0,0.2,0.2,0.4,0.4,0.4c0.3,0,0.5-0.2,0.5-0.4v-1.5h1.2l1.2,1.7c0.1,0.2,0.2,0.2,0.4,0.2c0.2,0,0.4-0.2,0.4-0.4
			c0-0.1,0-0.2-0.1-0.4l-0.9-1.3c0.6-0.2,1-0.7,1-1.4c0-1.1-0.9-1.6-1.9-1.6h-1.8c-0.2,0-0.4,0.2-0.4,0.5V107z M500.7,105
			c0-2.3,1.9-4.3,4.2-4.3c2.4,0,4.2,1.9,4.2,4.3c0,2.3-1.9,4.2-4.2,4.2C502.5,109.2,500.7,107.3,500.7,105 M510,105
			c0-2.8-2.3-5.1-5.1-5.1c-2.8,0-5,2.3-5,5.1c0,2.8,2.3,5,5.1,5C507.7,110,510,107.8,510,105"/>
	</g>
	<path class="st0" d="M92.7,109.7l0-21.2c0-5.3,1.7-9.9,7.8-9.9c7.5,0,6.8,7.1,6.9,11.1l0,20h15c0,0,0-25.6,0-25.6
		c0-4.4-0.7-9.1-3.3-12.8c-2.8-4-7.6-5.6-12.4-5.7c-6,0-10.7,3-14,7.9l0-5.6l-15.2,0l0,41.8H92.7z"/>
	<path class="st0" d="M244.3,109.7l0-16c0-7.3,2-12.8,10.4-12.9c2.3,0,4.2,0.2,6.3,1.4l0-14.5l-2.9,0c-5.9,0-11,2.4-13.9,7.6l0,0
		l0-7.4l-15.1,0l0,41.8L244.3,109.7z"/>
	<g>
		<polygon class="st0" points="498.5,110.3 498.5,110.3 498.5,110.2 		"/>
	</g>
	<polygon class="st0" points="14.7,109.7 14.8,82.9 32.6,109.6 51.6,109.6 28.2,77.4 51.1,47.3 33,47.3 14.8,73 14.7,47.4 0,47.4 
		0,109.7 	"/>
	<g>
		<path class="st0" d="M439.4,60.4c4.6,0,8.4-3.8,8.4-8.5c0-4.6-3.8-8.4-8.5-8.4c-4.6,0-8.4,3.9-8.4,8.5
			C430.9,56.6,434.7,60.4,439.4,60.4z"/>
	</g>
	<rect x="431.9" y="67.9" class="st0" width="15.1" height="41.8"/>
	<rect x="55.9" y="67.9" class="st0" width="15.1" height="41.8"/>
	<polygon class="st0" points="478.7,86.9 496.8,67.9 479.3,67.9 465.9,82.5 465.9,43.5 453.1,43.5 453.1,109.7 465.9,109.7 
		465.9,92.4 479.8,109.7 497.6,109.7 	"/>
	<path class="st1" d="M201.4,24.4c-10.9,0.2-20.1-10-22-22.4l-14.5,0.3l1.5,67.8c-4.3-3.9-10-6.3-16.3-6.1
		c-12.9,0.3-23.1,11-22.8,23.9c0.3,12.9,11,23.1,23.9,22.8c12.9-0.3,23.1-11,22.8-23.9l-1.5-69.2c4.1,6.9,10.7,11.5,18.1,11.4
		c4.5-0.1,8.6-1.8,12-4.7C202.1,24.3,201.8,24.4,201.4,24.4"/>
</g>
</svg>
